# xmcd CD database file
#
# Track frame offsets:
#	150
#	20031
#	39669
#	59266
#	78318
#	97079
#	115346
#	137683
#	156477
#	172958
#
# Disc length: 2555 seconds
#
# Revision: 0
# Processed by: cddbd v1.5.2PL0 Copyright (c) Steve Scherf et al.
# Submitted via: CDex 1.70beta2
#
DISCID=8509f90a
DTITLE=Various Artist - Sax In The City
DYEAR=2005
DGENRE=Jazz
TTITLE0=Broadway Nights
TTITLE1=Tenor Business
TTITLE2=Sax, Body and Soul
TTITLE3=Saxuality
TTITLE4=Little Italy
TTITLE5=Lovers In Central Park
TTITLE6=The Big Apple Sin
TTITLE7=Latin Lover in Manhattan
TTITLE8=The Girl From Brooklyn
TTITLE9=Wall Street
EXTD=YEAR: 2005
EXTT0=
EXTT1=
EXTT2=
EXTT3=
EXTT4=
EXTT5=
EXTT6=
EXTT7=
EXTT8=
EXTT9=
PLAYORDER=
